<svg fill="#ffffff" xmlns="http://www.w3.org/2000/svg"  viewBox="0 0 50 50" width="50px" height="50px"><path d="M 25 1 C 15.62003 1 8 8.6200302 8 18 C 8 21.934852 9.338472 25.56337 11.578125 28.441406 C 11.579015 28.442506 11.579178 28.444213 11.580078 28.445312 C 12.881845 30.20015 15.540286 33.445552 17.984375 37.027344 C 20.433903 40.617106 22.609579 44.57629 22.947266 47.255859 A 1.0001 1.0001 0 0 0 22.949219 47.269531 C 23.087696 48.259336 23.94612 49 24.939453 49 C 25.933113 49 26.813207 48.253225 26.933594 47.25 C 27.264043 44.644456 29.344744 40.842893 31.728516 37.353516 C 34.113791 33.861937 36.753391 30.641964 38.150391 28.779297 C 38.140221 28.792867 38.188921 28.726376 38.212891 28.697266 C 40.576728 25.777652 42 22.049173 42 18 C 42 8.6200302 34.37997 1 25 1 z M 25 3 C 25.609143 3 26.187453 3.1095293 26.777344 3.1796875 L 19.857422 11.634766 L 14.494141 7.2988281 C 17.198552 4.64388 20.900052 3 25 3 z M 29.009766 3.6074219 C 33.078798 4.7368158 36.415915 7.5073508 38.302734 11.193359 L 32.947266 17.740234 C 32.801586 13.457791 29.317099 10 25 10 C 24.481389 10 24.028565 10.202032 23.537109 10.296875 L 29.009766 3.6074219 z M 13.201172 8.8242188 L 18.591797 13.181641 L 10.794922 22.710938 C 10.303652 21.227167 10 19.653974 10 18 C 10 14.522139 11.223662 11.365018 13.201172 8.8242188 z M 25 12 C 28.33081 12 31 14.66919 31 18 C 31 21.33081 28.33081 24 25 24 C 21.66919 24 19 21.33081 19 18 C 19 14.66919 21.66919 12 25 12 z M 39.173828 13.285156 C 39.668281 14.775352 40 16.341297 40 18 C 40 21.586143 38.743589 24.870329 36.652344 27.449219 A 1.0001 1.0001 0 0 0 36.597656 27.525391 C 36.662996 27.427381 36.628771 27.476078 36.550781 27.580078 C 35.217781 29.357411 32.525897 32.638688 30.076172 36.224609 C 27.626447 39.81053 25.368819 43.661536 24.947266 47.005859 A 1.0001 1.0001 0 0 0 24.947266 47.011719 C 24.94765 47.008453 24.965793 47 24.939453 47 C 24.932753 47 24.931187 47.002388 24.929688 46.992188 C 24.52099 43.785616 22.399697 40.101719 20.078125 36.626953 L 39.173828 13.285156 z M 17.046875 18.230469 C 17.176564 22.527243 20.672521 26 25 26 C 25.504771 26 25.944669 25.800899 26.423828 25.710938 L 18.898438 34.910156 C 16.648702 31.73408 14.255696 28.694038 13.173828 27.234375 A 1.0001 1.0001 0 0 0 13.158203 27.214844 C 12.567692 26.456407 12.211585 25.54039 11.773438 24.675781 L 17.046875 18.230469 z"/></svg>